# xmcd CD database file
#
# Track frame offsets:
#	150
#	22295
#	35120
#	47585
#
# Disc length: 887 seconds
#
# Revision: 0
# Processed by: cddbd v1.5.1PL0 Copyright (c) Steve Scherf et al.
# Submitted via: CDex 1.51
#
DISCID=33037504
DTITLE=徳永憲 - ネヴァ･ギヴァ
DYEAR=2001
DGENRE=Rock
TTITLE0=ネヴァ･ギヴァ
TTITLE1=君が朽ち果てようとも
TTITLE2=僕では育たない
TTITLE3=起きたての耳には雨の音
EXTD=YEAR: 2001.05/16
EXTT0=
EXTT1=
EXTT2=
EXTT3=
PLAYORDER=
